<svg xml:space="preserve" version="1.1" viewBox="0 0 800 800" xmlns:xlink="http://www.w3.org/1999/xlink" xmlns="http://www.w3.org/2000/svg" xmlns:svg="http://www.w3.org/2000/svg">
    <path d="M446.57422 144.5625c-3.50801.02792-6.97207.59524-10.28516 1.64844-5.92659 1.884-10.54302 5.09884-14.1914 8.7207-3.7712 3.74378-7.64925 9.90051-8.58399 11.51953l-13.73242 23.74024-11.30469-19.98047c-2.54313-4.36376-4.81855-7.83148-6.94531-10.63282-5.04667-6.64739-9.72074-9.60071-12.9375-11.17382-10.51409-5.14176-22.5234-5.26836-33.13281.79492-6.8231 3.97739-11.82617 9.88689-14.7793 16.64844-2.25202 5.15627-3.37494 10.70073-2.83594 16.90625.64506 7.42664 3.00239 13.74675 8.41016 23.11328l32.25976 56.57812-116.63476 204.28516h-82.6582c-13.23034-.04018-18.50102 1.05539-23.32813 3-3.78513 1.52485-7.30666 3.58604-10.16211 6.08008-7.55272 6.59678-12.37366 16.22084-12.40625 26.95117 0 9.93081 4.04264 18.92911 10.56055 25.47656 3.42198 3.43749 7.89214 6.19961 12.76172 8.06641 4.55473 1.7461 12.21239 2.70898 20.375 2.70898h319.0664c7.49546-16.60541 5.51956-34.71471-3.98632-49.31445-8.64879-13.28335-24.26578-22.96875-42.20313-22.96875H324.48047l149.81445-262.49414c2.83144-4.95563 4.78499-9.40944 6.02735-13.47852 2.75211-9.01394 1.85271-17.41678-1.0918-24.43164-2.92798-6.97549-8.10973-13.08312-15.22656-17.15039-5.6107-3.20651-11.583-4.65981-17.42969-4.61328Zm5.08789 137.69336s-3.18329 2.48912-8.58008 9.89844c-3.11745 4.27999-5.875 8.81938-8.30273 13.56836-2.20016 4.41562-4.05342 8.97699-5.5586 13.6289-8.96131 27.69584-5.65287 58.69987 9.71289 85.4375l128.76758 224.06641c7.93901 13.91214 10.15774 15.47743 14.23828 18.68555 3.19969 2.51562 6.68239 4.61631 10.25782 5.8457 9.45705 3.2518 20.17461 2.63507 29.46679-2.67383 8.58481-4.9394 14.25377-12.99231 16.67383-21.88672 1.27056-4.66968 1.43577-9.90826.62891-15.04883-.75464-4.80824-3.62799-11.91218-7.68555-18.97265l-32.20703-56.04102h43.85351c8.16261 0 15.82027-.96363 20.375-2.71094 4.86958-1.86809 9.33974-4.63238 12.76172-8.07226 6.51791-6.55197 10.59961-15.55647 10.59961-25.49414-.03259-10.73774-4.94337-20.36742-12.49609-26.96875-2.85544-2.49577-6.37698-4.55809-10.16211-6.08399-4.82712-1.94595-11.0978-3.04411-24.32813-3.0039h-82.17187ZM209.97656 553.99609c-3.9795-.01076-7.93672.29438-11.64648.94727-3.4965.61536-6.9142 1.18103-10.06836 2.07226l-22.58984 39.13672c-3.60277 6.24017-6.18044 12.64373-7.17188 17.44141-.53193 2.57408-.60167 4.49473-.62891 6.95703-.12294 11.11346 6.27528 23.60824 17.42188 29.97852 11.43542 6.53534 25.48043 6.31094 36.10742-.25782 6.26689-3.87369 9.93287-7.41013 17.39453-19.91015l30.59766-52.91797c-3.67137-4.64201-7.41043-8.47341-11.8125-11.72656-5.73118-4.23537-12.13658-7.32946-18.54297-9.16407-5.73016-1.64095-12.42804-2.5387-19.06055-2.55664Z" fill="#fff"/>
</svg>