<svg viewBox="0 0 24 24" width="24" height="24" stroke="transparent" stroke-width="2" fill="#fff" stroke-linecap="round" stroke-linejoin="round" class="css-i6dzq1" xmlns:xlink="http://www.w3.org/1999/xlink" xmlns="http://www.w3.org/2000/svg" xmlns:svg="http://www.w3.org/2000/svg">
    <g transform="translate(-4 -1)">
        <path transform="scale(1.5)" d="M6 5 9 5Q9.5 5 9.5 5.5L9.5 8Q9.5 8.5 10 8.5L12.5 8.5Q13 8.5 13 9L13 14Q13 15 12 15L6 15Q5 15 5 14L5 6Q5 5 6 5M10 7.5 10 5.5Q10.002 5.222 10.3935 5.4995L12.333 7.509Q12.7435 7.9965 12.5 8L10.5 8Q10 8 10 7.5M9 2l3 0q.5 0 .5.5l0 2.5q0 .5.5.5l2.5 0q.5 0 .5.5l0 5q0 1-1 1l-1 0c-.5 0-.5 0-.5-1L13.5 9c.007-.971.08-.834-.495-1.36L10.5 5C10.096 4.501 10.096 4.506 9.543 4.506L8.5 4.5Q8 4.5 8 4M8 4 8 3q0-1 1-1m4 2.5 0-2q.002-.278.3935-.0005l1.9395 2.0095q.4105.4875.167.491l-2 0q-.5 0-.5-.5"></path>
    </g>
</svg>