<svg viewBox="0 0 24 24" width="24" height="24" stroke="#fff" stroke-width="2" fill="none" stroke-linecap="round" stroke-linejoin="round" class="css-i6dzq1" xmlns:xlink="http://www.w3.org/1999/xlink" xmlns="http://www.w3.org/2000/svg" xmlns:svg="http://www.w3.org/2000/svg">
    <g transform="translate(-6.25 -5.75) scale(1.5)">
        <g transform="translate(4.5, 7.5) scale(.5)">
            <path d="M13 2H6a2 2 0 0 0-2 2v16a2 2 0 0 0 2 2h12a2 2 0 0 0 2-2V9z"></path>
            <polyline points="13 2 13 9 20 9"></polyline>
        </g>
        <g transform="translate(8, 4) scale(.5)">
            <path d="M13 2H6A2 2 0 004 4M13 20 20 20 20 9 13 2M6 9 13 16 13 20 13 16 6 9ZM4 4 4 9"></path>
            <polyline points="13 2 13 9 20 9"></polyline>
        </g>
    </g>
</svg>